<svg xmlns="http://www.w3.org/2000/svg" xmlns:xlink="http://www.w3.org/1999/xlink" id="svg-root" width="300" height="225" baseProfile="tiny" version="1.1" viewBox="0 0 480 360"><title id="test-title">paths-data-02-t</title><desc id="test-desc">Test that the viewer has the basic capability to handle the &apos;path&apos; element and data (d) attribute in combination with the quadratic Bezier curveto commands, both regular and shorthand/smooth forms - Q, q, T, t (along with Mm and Zz).</desc><g id="test-body-content"><text x="120" y="14" font-family="Arial" font-size="12">Quadric bezier curves drawn with commands:</text><path id="Bez_MQMqz" fill="none" stroke="#00F" stroke-width="3" d="M 15 20 Q 30 120 130 30 M 180 80 q -75 -100 -163 -60z"/><text x="80" y="86" font-family="Arial" font-size="12">M, Q, M, q, z</text><rect width="4" height="4" x="13" y="18" fill="#00C000" stroke="none"/><rect width="4" height="4" x="128" y="28" fill="#00C000" stroke="none"/><rect width="4" height="4" x="178" y="78" fill="#00C000" stroke="none"/><rect width="4" height="4" x="15" y="18" fill="#00C000" stroke="none"/><path id="Bez_fill_MQzmqz" fill="#FF0" stroke="#CF0000" d="M372 130Q272 50 422 10zm70 0q50-150-80-90z"/><text x="352" y="150" font-family="Arial" font-size="12">m, q, z, m, q, z</text><rect width="4" height="4" x="370" y="128" fill="#00F" stroke="none"/><rect width="4" height="4" x="420" y="8" fill="#00F" stroke="none"/><rect width="4" height="4" x="440" y="128" fill="#00F" stroke="none"/><rect width="4" height="4" x="360" y="38" fill="#00F" stroke="none"/><path id="Bez_stroke_MQz" fill="none" stroke="#0FF" d="M224 103Q234 -12 304 33Z"/><text x="192" y="36" font-family="Arial" font-size="12">M, Q, Z</text><rect width="4" height="4" x="222" y="101" fill="#00F" stroke="none"/><rect width="4" height="4" x="302" y="31" fill="#00F" stroke="none"/><path id="Tri_MQTQz" fill="#00C000" stroke="#000" d="M208 168Q258 268 308 168T258 118Q128 88 208 168z"/><text x="308" y="188" font-family="Arial" font-size="12">M, Q, T, Q, z</text><rect width="4" height="4" x="206" y="166" fill="#00F" stroke="none"/><rect width="4" height="4" x="306" y="166" fill="#00F" stroke="none"/><rect width="4" height="4" x="256" y="116" fill="#00F" stroke="none"/><rect width="4" height="4" x="206" y="206" fill="#00F" stroke="none"/><path id="Inv_V_MCcZ" fill="#CF0000" stroke="none" d="M 60 100 Q -40 150 60 200 Q 160 150 60 100 z"/><text x="80" y="200" font-family="Arial" font-size="12">M, Q, Q, z</text><rect width="4" height="4" x="58" y="98" fill="#00F" stroke="none"/><rect width="4" height="4" x="58" y="198" fill="#00F" stroke="none"/><rect width="4" height="4" x="58" y="98" fill="#00F" stroke="none"/><path id="Sin_Mqttttz" fill="none" stroke="red" d="M240 296q25-100 47 0t47 0t47 0t47 0t47 0z"/><text x="380" y="236" font-family="Arial" font-size="12">M, q, t, t, t, t, z</text><rect width="4" height="4" x="238" y="294" fill="#00F" stroke="none"/><rect width="4" height="4" x="285" y="294" fill="#00F" stroke="none"/><rect width="4" height="4" x="332" y="294" fill="#00F" stroke="none"/><rect width="4" height="4" x="379" y="294" fill="#00F" stroke="none"/><rect width="4" height="4" x="426" y="294" fill="#00F" stroke="none"/><rect width="4" height="4" x="473" y="294" fill="#00F" stroke="none"/><path id="Dbl_spd_MCcZ" fill="#0000C0" stroke="#00CF00" stroke-width="2" d="M172 193q-100 50 0 50Q72 243 172 293q100 -50 0 -50Q272 243 172 193z"/><text x="48" y="280" font-family="Arial" font-size="12">M, q, Q, q, Q, z</text><rect width="4" height="4" x="170" y="191" fill="red" stroke="none"/><rect width="4" height="4" x="170" y="241" fill="red" stroke="none"/><rect width="4" height="4" x="170" y="291" fill="red" stroke="none"/><rect width="4" height="4" x="170" y="241" fill="red" stroke="none"/><rect width="4" height="4" x="170" y="191" fill="red" stroke="none"/></g><text id="revision" x="10" y="340" fill="#000" stroke="none" font-size="40">$Revision: 1.6 $</text><rect id="test-frame" width="478" height="358" x="1" y="1" fill="none" stroke="#000"/></svg>