<svg xmlns="http://www.w3.org/2000/svg" xmlns:xlink="http://www.w3.org/1999/xlink" id="svg-root" width="300" height="225" baseProfile="basic" version="1.1" viewBox="0 0 480 360"><title id="test-title">pservers-grad-99-b</title><desc id="test-desc">Test that the viewer can handle the xlink:href attribute on linear, radial gradients and patterns.</desc><g id="test-body-content"><linearGradient id="Grad" gradientUnits="objectBoundingBox"><stop offset=".3" stop-color="#00f"/><stop offset=".7" stop-color="red"/></linearGradient><linearGradient id="Grad_lt" x1="0" x2="1" y1="0" y2="1" xlink:href="#Grad"/><linearGradient id="Grad_t" x1="0" x2="0" y1="0" y2="1" xlink:href="#Grad"/><linearGradient id="Grad_rt" x1="1" x2="0" y1="0" y2="1" xlink:href="#Grad"/><linearGradient id="Grad_l" x1="0" x2="1" y1="0" y2="0" xlink:href="#Grad"/><linearGradient id="Grad_r" x1="1" x2="0" y1="0" y2="0" xlink:href="#Grad"/><linearGradient id="Grad_lb" x1="0" x2="1" y1="1" y2="0" xlink:href="#Grad"/><linearGradient id="Grad_b" x1="0" x2="0" y1="1" y2="0" xlink:href="#Grad"/><linearGradient id="Grad_rb" x1="1" x2="0" y1="1" y2="0" xlink:href="#Grad"/><rect width="80" height="80" x="100" y="10" fill="url(#Grad_lt)"/><rect width="80" height="80" x="200" y="10" fill="url(#Grad_t)"/><rect width="80" height="80" x="300" y="10" fill="url(#Grad_rt)"/><rect width="80" height="80" x="100" y="110" fill="url(#Grad_l)"/><rect width="80" height="80" x="300" y="110" fill="url(#Grad_r)"/><rect width="80" height="80" x="100" y="210" fill="url(#Grad_lb)"/><rect width="80" height="80" x="200" y="210" fill="url(#Grad_b)"/><rect width="80" height="80" x="300" y="210" fill="url(#Grad_rb)"/></g><text id="revision" x="10" y="340" fill="#000" stroke="none" font-size="40">$Revision: 1.5 $</text><rect id="test-frame" width="478" height="358" x="1" y="1" fill="none" stroke="#000"/></svg>