<svg xmlns="http://www.w3.org/2000/svg" xmlns:xlink="http://www.w3.org/1999/xlink" id="svg-root" width="300" height="225" baseProfile="tiny" version="1.1" viewBox="0 0 480 360"><title id="test-title">shapes-line-01-t</title><desc id="test-desc">Test ability to handle the &apos;line&apos; basic-shapes element.</desc><g id="test-body-content"><g id="diagonal-line-set"><line x1="37.5" x2="112.5" y1="137" y2="50" fill="none" stroke="#000" stroke-width="1"/><line x1="112.5" x2="187.5" y1="137" y2="50" fill="none" stroke="red" stroke-width="5"/><line x1="187.5" x2="262.5" y1="137" y2="50" fill="none" stroke="green" stroke-width="7.5"/><line x1="262.5" x2="337.5" y1="137" y2="50" fill="none" stroke="#00f" stroke-width="10"/><line x1="337.5" x2="412.5" y1="137" y2="50" fill="none" stroke="#f0f" stroke-width="12.5"/></g><g id="middle-figure" stroke="#000" stroke-width="1"><line x1="170" x2="220" y1="200" y2="200"/><line x1="220" x2="220" y1="200" y2="250"/><line x1="220" x2="270" y1="250" y2="250"/><line x1="270" x2="270" y1="250" y2="200"/><line x1="270" x2="320" y1="200" y2="200"/></g><g id="lower-left-figure" stroke="#00f" stroke-width="10"><line x1="25" x2="75" y1="200" y2="200"/><line x1="75" x2="75" y1="200" y2="250"/><line x1="75" x2="125" y1="250" y2="250"/><line x1="125" x2="125" y1="250" y2="200"/><line x1="125" x2="175" y1="200" y2="200"/></g><g id="lower-right-figure" stroke-width="10"><line x1="370" x2="420" y1="250" y2="250" stroke="#000"/><line x1="420" x2="470" y1="200" y2="200" stroke="#f0f"/><line x1="320" x2="370" y1="200" y2="200" stroke="#00f"/><line x1="370" x2="370" y1="200" y2="250" stroke="green"/><line x1="420" x2="420" y1="250" y2="200" stroke="red"/></g></g><text id="revision" x="10" y="340" fill="#000" stroke="none" font-size="40">$Revision: 1.7 $</text><rect id="test-frame" width="478" height="358" x="1" y="1" fill="none" stroke="#000"/></svg>