<svg xmlns="http://www.w3.org/2000/svg" xmlns:xlink="http://www.w3.org/1999/xlink" width="520pt" height="256pt" viewBox="0 0 520 256"><g id="graph1" class="graph" transform="scale(1 1) rotate(0) translate(4 252)"><title>UML</title><polygon fill="#fff" stroke="#fff" points="-4 5 -4 -252 517 -252 517 5 -4 5"/><g id="graph2" class="cluster"><title>clusterAssetsManager</title><polygon fill="none" stroke="#000" points="219 -66 219 -182 453 -182 453 -66 219 -66"/></g><g id="node2" class="node"><title>asset_info_t</title><polygon fill="none" stroke="#000" points="356.994 -75.219 356.994 -172.781 445.006 -172.781 445.006 -75.219 356.994 -75.219"/><text x="401" y="-158.781" font-family="Courier New" font-size="10" text-anchor="middle">asset_info_t</text><polyline fill="none" stroke="#000" points="356.994 -151.188 445.006 -151.188"/><text x="364.994" y="-137.188" font-family="Courier New" font-size="10" text-anchor="start">+name</text><text x="364.994" y="-123.594" font-family="Courier New" font-size="10" text-anchor="start">+data</text><text x="364.994" y="-110" font-family="Courier New" font-size="10" text-anchor="start">+size</text><text x="364.994" y="-96.406" font-family="Courier New" font-size="10" text-anchor="start">+type</text><text x="364.994" y="-82.813" font-family="Courier New" font-size="10" text-anchor="start">+subtype</text></g><g id="node3" class="node"><title>assets_manager_t</title><polygon fill="none" stroke="#000" points="226.992 -106 226.992 -142 339.008 -142 339.008 -106 226.992 -106"/><text x="283" y="-120.797" font-family="Courier New" font-size="10" text-anchor="middle">assets_manager_t</text></g><g id="edge3" class="edge"><title>assets_manager_t-&gt;asset_info_t</title><path fill="none" stroke="#000" d="M339.234,-124C345.025,-124 350.815,-124 356.606,-124"/></g><g id="node16" class="node"><title>fs</title><polygon fill="none" stroke="#000" points="179 -1 179 -37 233 -37 233 -1 179 -1"/><text x="205.501" y="-15.797" font-family="Courier New" font-size="10" text-anchor="middle">fs</text></g><g id="edge15" class="edge"><title>assets_manager_t-&gt;fs</title><path fill="none" stroke="#000" d="M270.285,-105.992C257.913,-89.442 238.966,-64.0976 224.843,-45.2052"/><polygon fill="#000" stroke="#000" points="218.734 -37.034 228.326 -42.349 221.728 -41.038 224.721 -45.043 224.721 -45.043 224.721 -45.043 221.728 -41.038 221.117 -47.737 218.734 -37.034 218.734 -37.034"/></g><g id="node18" class="node"><title>rom_data</title><polygon fill="none" stroke="#000" points="250.996 -1 250.996 -37 315.004 -37 315.004 -1 250.996 -1"/><text x="283" y="-15.797" font-family="Courier New" font-size="10" text-anchor="middle">rom_data</text></g><g id="edge17" class="edge"><title>assets_manager_t-&gt;rom_data</title><path fill="none" stroke="#000" d="M283,-105.992C283,-90.0384 283,-65.9128 283,-47.272"/><polygon fill="#000" stroke="#000" points="283 -37.034 287.5 -47.034 283 -42.034 283 -47.034 283 -47.034 283 -47.034 283 -42.034 278.5 -47.034 283 -37.034 283 -37.034"/></g><g id="node20" class="node"><title>network</title><polygon fill="none" stroke="#000" points="332.997 -1 332.997 -37 391.003 -37 391.003 -1 332.997 -1"/><text x="362" y="-15.797" font-family="Courier New" font-size="10" text-anchor="middle">network</text></g><g id="edge19" class="edge"><title>assets_manager_t-&gt;network</title><path fill="none" stroke="#000" d="M296.045,-105.992C308.739,-89.442 328.178,-64.0976 342.668,-45.2052"/><polygon fill="#000" stroke="#000" points="348.935 -37.034 346.42 -47.707 345.892 -41.001 342.849 -44.968 342.849 -44.968 342.849 -44.968 345.892 -41.001 339.279 -42.23 348.935 -37.034 348.935 -37.034"/></g><g id="node5" class="node"><title>locale_info_t</title><polygon fill="none" stroke="#000" points="-.006 -211 -.006 -247 94.006 -247 94.006 -211 -.006 -211"/><text x="47" y="-225.797" font-family="Courier New" font-size="10" text-anchor="middle">locale_info_t</text></g><g id="edge5" class="edge"><title>locale_info_t-&gt;assets_manager_t</title><path fill="none" stroke="#000" d="M85.9706,-210.992C126.708,-193.212 190.704,-165.282 234.641,-146.106"/><polygon fill="#000" stroke="#000" points="243.972 -142.034 236.606 -150.158 239.389 -144.034 234.806 -146.034 234.806 -146.034 234.806 -146.034 239.389 -144.034 233.006 -141.909 243.972 -142.034 243.972 -142.034"/></g><g id="node7" class="node"><title>font_manager_t</title><polygon fill="none" stroke="#000" points="111.993 -211 111.993 -247 212.007 -247 212.007 -211 111.993 -211"/><text x="162" y="-225.797" font-family="Courier New" font-size="10" text-anchor="middle">font_manager_t</text></g><g id="edge7" class="edge"><title>font_manager_t-&gt;assets_manager_t</title><path fill="none" stroke="#000" d="M181.981,-210.992C201.948,-193.995 232.813,-167.721 255.173,-148.688"/><polygon fill="#000" stroke="#000" points="262.99 -142.034 258.292 -151.942 259.182 -145.275 255.375 -148.516 255.375 -148.516 255.375 -148.516 259.182 -145.275 252.458 -145.089 262.99 -142.034 262.99 -142.034"/></g><g id="node9" class="node"><title>image_manager_t</title><polygon fill="none" stroke="#000" points="229.993 -211 229.993 -247 336.007 -247 336.007 -211 229.993 -211"/><text x="283" y="-225.797" font-family="Courier New" font-size="10" text-anchor="middle">image_manager_t</text></g><g id="edge9" class="edge"><title>image_manager_t-&gt;assets_manager_t</title><path fill="none" stroke="#000" d="M283,-210.992C283,-195.038 283,-170.913 283,-152.272"/><polygon fill="#000" stroke="#000" points="283 -142.034 287.5 -152.034 283 -147.034 283 -152.034 283 -152.034 283 -152.034 283 -147.034 278.5 -152.034 283 -142.034 283 -142.034"/></g><g id="node11" class="node"><title>theme_t</title><polygon fill="none" stroke="#000" points="353.997 -211 353.997 -247 412.003 -247 412.003 -211 353.997 -211"/><text x="383" y="-225.797" font-family="Courier New" font-size="10" text-anchor="middle">theme_t</text></g><g id="edge11" class="edge"><title>theme_t-&gt;assets_manager_t</title><path fill="none" stroke="#000" d="M366.487,-210.992C350.202,-194.218 325.147,-168.411 306.731,-149.443"/><polygon fill="#000" stroke="#000" points="299.537 -142.034 309.732 -146.074 303.02 -145.621 306.503 -149.208 306.503 -149.208 306.503 -149.208 303.02 -145.621 303.275 -152.343 299.537 -142.034 299.537 -142.034"/></g><g id="node13" class="node"><title>ui_loader_t</title><polygon fill="none" stroke="#000" points="429.995 -211 429.995 -247 512.005 -247 512.005 -211 429.995 -211"/><text x="471" y="-225.797" font-family="Courier New" font-size="10" text-anchor="middle">ui_loader_t</text></g><g id="edge13" class="edge"><title>ui_loader_t-&gt;assets_manager_t</title><path fill="none" stroke="#000" d="M429.775,-212.984C395.513,-200.441 351.767,-184.252 348,-182 332.889,-172.965 317.978,-160.241 306.258,-149.107"/><polygon fill="#000" stroke="#000" points="299.046 -142.075 309.347 -145.835 302.626 -145.566 306.205 -149.056 306.205 -149.056 306.205 -149.056 302.626 -145.566 303.064 -152.278 299.046 -142.075 299.046 -142.075"/></g></g></svg>