<svg xmlns="http://www.w3.org/2000/svg" xmlns:xlink="http://www.w3.org/1999/xlink" width="665pt" height="320pt" viewBox="0 0 665 320"><g id="graph1" class="graph" transform="scale(1 1) rotate(0) translate(4 316)"><title>G</title><polygon fill="#fff" stroke="#fff" points="-4 5 -4 -316 662 -316 662 5 -4 5"/><g id="graph2" class="cluster"><title>clusterFontManager</title><polygon fill="none" stroke="#000" points="134 -68 134 -304 649 -304 649 -68 134 -68"/></g><g id="node2" class="node"><title>glyph_t</title><polygon fill="none" stroke="#000" points="574.796 -77.063 574.796 -190.938 641.204 -190.938 641.204 -77.063 574.796 -77.063"/><text x="608" y="-174.938" font-family="Courier New" font-size="12" text-anchor="middle">glyph_t</text><polyline fill="none" stroke="#000" points="574.796 -166.625 641.204 -166.625"/><text x="582.796" y="-150.625" font-family="Courier New" font-size="12" text-anchor="start">+x</text><text x="582.796" y="-134.312" font-family="Courier New" font-size="12" text-anchor="start">+y</text><text x="582.796" y="-118" font-family="Courier New" font-size="12" text-anchor="start">+w</text><text x="582.796" y="-101.688" font-family="Courier New" font-size="12" text-anchor="start">+h</text><text x="582.796" y="-85.375" font-family="Courier New" font-size="12" text-anchor="start">+data</text></g><g id="node3" class="node"><title>font_t</title><polygon fill="none" stroke="#000" points="336.385 -101.531 336.385 -166.469 539.615 -166.469 539.615 -101.531 336.385 -101.531"/><text x="438" y="-150.469" font-family="Courier New" font-size="12" text-anchor="middle">font_t</text><polyline fill="none" stroke="#000" points="336.385 -142.156 539.615 -142.156"/><text x="344.385" y="-126.156" font-family="Courier New" font-size="12" text-anchor="start">+match(...)</text><text x="344.385" y="-109.844" font-family="Courier New" font-size="12" text-anchor="start">+find_glyph(...) : glyph_t</text></g><g id="edge3" class="edge"><title>glyph_t-&gt;font_t</title><path fill="none" stroke="#000" d="M574.764,-134C567.236,-134 559.707,-134 552.179,-134"/><polygon fill="none" stroke="#000" points="551.934 -134 545.934 -138 539.934 -134 545.934 -130 551.934 -134"/></g><g id="node5" class="node"><title>font_manager_t</title><polygon fill="none" stroke="#000" points="142.187 -246.688 142.187 -295.312 323.813 -295.312 323.813 -246.688 142.187 -246.688"/><text x="233" y="-279.312" font-family="Courier New" font-size="12" text-anchor="middle">font_manager_t</text><polyline fill="none" stroke="#000" points="142.187 -271 323.813 -271"/><text x="150.187" y="-255" font-family="Courier New" font-size="12" text-anchor="start">+get_font(...) : font_t</text></g><g id="edge5" class="edge"><title>font_t-&gt;font_manager_t</title><path fill="none" stroke="#000" d="M390.195,-166.481C353.045,-190.946 302.339,-224.338 268.676,-246.506"/></g><g id="node4" class="node"><title>font_loader_t</title><polygon fill="none" stroke="#000" points="141.589 -109.688 141.589 -158.312 294.411 -158.312 294.411 -109.688 141.589 -109.688"/><text x="218" y="-142.312" font-family="Courier New" font-size="12" text-anchor="middle">font_loader_t</text><polyline fill="none" stroke="#000" points="141.589 -134 294.411 -134"/><text x="149.589" y="-118" font-family="Courier New" font-size="12" text-anchor="start">+load(...) : font_t</text></g><g id="edge9" class="edge"><title>font_loader_t-&gt;font_t</title><path fill="none" stroke="#000" d="M294.636,-134C304.786,-134 315.353,-134 325.947,-134"/><polygon fill="#000" stroke="#000" points="336.098 -134 326.098 -138.5 331.098 -134 326.098 -134 326.098 -134 326.098 -134 331.098 -134 326.098 -129.5 336.098 -134 336.098 -134"/><text x="315.192" y="-117" font-family="Times,serif" font-size="14" text-anchor="middle">load</text></g><g id="edge7" class="edge"><title>font_loader_t-&gt;font_manager_t</title><path fill="none" stroke="#000" d="M220.613,-158.515C223.349,-183.142 227.623,-221.606 230.367,-246.301"/></g><g id="node10" class="node"><title>canvas_t</title><polygon fill="none" stroke="#000" points="50.195 -116 50.195 -152 123.805 -152 123.805 -116 50.195 -116"/><text x="87" y="-130.156" font-family="Courier New" font-size="12" text-anchor="middle">canvas_t</text></g><g id="edge11" class="edge"><title>canvas_t-&gt;font_manager_t</title><path fill="none" stroke="#000" d="M98.1548,-152.147C106.265,-163.981 117.903,-179.731 130,-192 147.697,-209.949 169.703,-227.169 188.826,-240.842"/><polygon fill="#000" stroke="#000" points="197.103 -246.67 186.336 -244.592 193.015 -243.791 188.927 -240.913 188.927 -240.913 188.927 -240.913 193.015 -243.791 191.517 -237.233 197.103 -246.67 197.103 -246.67"/><text x="194.328" y="-213.4" font-family="Times,serif" font-size="14" text-anchor="middle">get_font</text></g><g id="node12" class="node"><title>font_loader_ft_t</title><polygon fill="none" stroke="#000" points="-.609 -1 -.609 -37 130.609 -37 130.609 -1 -.609 -1"/><text x="65" y="-15.156" font-family="Courier New" font-size="12" text-anchor="middle">font_loader_ft_t</text></g><g id="edge13" class="edge"><title>font_loader_ft_t-&gt;font_loader_t</title><path fill="none" stroke="#000" stroke-dasharray="5 2" d="M92.4831,-37.1432C106.356,-46.0286 123.314,-57.2475 138,-68 152.967,-78.9582 168.929,-91.699 182.627,-102.982"/><polygon fill="none" stroke="#000" points="180.474 -105.744 190.406 -109.433 184.943 -100.355 180.474 -105.744"/></g><g id="node14" class="node"><title>font_loader_stb_t</title><polygon fill="none" stroke="#000" points="148.79 -1 148.79 -37 287.21 -37 287.21 -1 148.79 -1"/><text x="218" y="-15.156" font-family="Courier New" font-size="12" text-anchor="middle">font_loader_stb_t</text></g><g id="edge15" class="edge"><title>font_loader_stb_t-&gt;font_loader_t</title><path fill="none" stroke="#000" stroke-dasharray="5 2" d="M218,-37.1623C218,-53.5661 218,-78.7524 218,-99.1892"/><polygon fill="none" stroke="#000" points="214.5 -99.372 218 -109.372 221.5 -99.372 214.5 -99.372"/></g><g id="node16" class="node"><title>font_loader_bitmap_t</title><polygon fill="none" stroke="#000" points="304.988 -1 304.988 -37 465.012 -37 465.012 -1 304.988 -1"/><text x="385" y="-15.156" font-family="Courier New" font-size="12" text-anchor="middle">font_loader_bitmap_t</text></g><g id="edge17" class="edge"><title>font_loader_bitmap_t-&gt;font_loader_t</title><path fill="none" stroke="#000" stroke-dasharray="5 2" d="M359.636,-37.1623C333.531,-54.8265 292.375,-82.6746 261.14,-103.81"/><polygon fill="none" stroke="#000" points="258.934 -101.076 252.614 -109.579 262.857 -106.873 258.934 -101.076"/></g></g></svg>