<svg xmlns="http://www.w3.org/2000/svg" xmlns:xlink="http://www.w3.org/1999/xlink" width="240" height="44pt" viewBox="0 0 180 44"><g id="graph1" class="graph" transform="scale(1 1) rotate(0) translate(4 40)"><title>UML</title><polygon fill="#fff" stroke="#fff" points="-4 5 -4 -40 177 -40 177 5 -4 5"/><g id="node1" class="node"><title>idle_t</title><polygon fill="none" stroke="#000" points="0 0 0 -36 54 -36 54 0 0 0"/><text x="27" y="-15" font-family="Courier New" font-size="10" text-anchor="middle">idle_t</text></g><g id="node3" class="node"><title>idle_info_t</title><polygon fill="none" stroke="#000" points="89.995 0 89.995 -36 172.005 -36 172.005 0 89.995 0"/><text x="131" y="-15" font-family="Courier New" font-size="10" text-anchor="middle">idle_info_t</text></g><g id="edge2" class="edge"><title>idle_t-&gt;idle_info_t</title><path fill="none" stroke="#000" d="M54.0028,-18C61.8087,-18 70.6525,-18 79.4773,-18"/><polygon fill="#000" stroke="#000" points="89.765 -18 79.765 -22.5 84.765 -18 79.765 -18 79.765 -18 79.765 -18 84.765 -18 79.765 -13.5 89.765 -18 89.765 -18"/></g></g></svg>