<svg xmlns="http://www.w3.org/2000/svg" xmlns:xlink="http://www.w3.org/1999/xlink" width="296" height="278pt" viewBox="0 0 222 278"><g id="graph1" class="graph" transform="scale(1 1) rotate(0) translate(4 274)"><title>UML</title><polygon fill="#fff" stroke="#fff" points="-4 5 -4 -274 219 -274 219 5 -4 5"/><g id="graph2" class="cluster"><title>clusterImageManager</title><polygon fill="none" stroke="#000" points="8 -66 8 -262 206 -262 206 -66 8 -66"/></g><g id="node2" class="node"><title>bitmap_t</title><polygon fill="none" stroke="#000" points="133.996 -75.219 133.996 -172.781 198.004 -172.781 198.004 -75.219 133.996 -75.219"/><text x="166" y="-158.781" font-family="Courier New" font-size="10" text-anchor="middle">bitmap_t</text><polyline fill="none" stroke="#000" points="133.996 -151.188 198.004 -151.188"/><text x="141.996" y="-137.188" font-family="Courier New" font-size="10" text-anchor="start">+x</text><text x="141.996" y="-123.594" font-family="Courier New" font-size="10" text-anchor="start">+y</text><text x="141.996" y="-110" font-family="Courier New" font-size="10" text-anchor="start">+w</text><text x="141.996" y="-96.406" font-family="Courier New" font-size="10" text-anchor="start">+h</text><text x="141.996" y="-82.813" font-family="Courier New" font-size="10" text-anchor="start">+data</text></g><g id="node3" class="node"><title>image_manager_t</title><polygon fill="none" stroke="#000" points="15.992 -210.406 15.992 -253.594 134.008 -253.594 134.008 -210.406 15.992 -210.406"/><text x="75" y="-239.594" font-family="Courier New" font-size="10" text-anchor="middle">image_manager_t</text><polyline fill="none" stroke="#000" points="15.992 -232 134.008 -232"/><text x="23.992" y="-218" font-family="Courier New" font-size="10" text-anchor="start">+ get_bitmap(...)</text></g><g id="edge3" class="edge"><title>image_manager_t-&gt;bitmap_t</title><path fill="none" stroke="#000" d="M93.4031,-210.256C102.9,-199.491 114.637,-186.096 125,-174 127.887,-170.631 130.872,-167.118 133.855,-163.589"/></g><g id="node4" class="node"><title>image_loader_t</title><polygon fill="none" stroke="#000" points="15.993 -102.406 15.993 -145.594 116.007 -145.594 116.007 -102.406 15.993 -102.406"/><text x="66" y="-131.594" font-family="Courier New" font-size="10" text-anchor="middle">image_loader_t</text><polyline fill="none" stroke="#000" points="15.993 -124 116.007 -124"/><text x="23.993" y="-110" font-family="Courier New" font-size="10" text-anchor="start">+ load(...)</text></g><g id="edge5" class="edge"><title>image_loader_t-&gt;image_manager_t</title><path fill="none" stroke="#000" d="M67.7567,-145.69C69.0699,-161.157 70.8872,-182.561 72.373,-200.06"/><polygon fill="#000" stroke="#000" points="73.248 -210.363 67.918 -200.779 72.825 -205.381 72.402 -200.399 72.402 -200.399 72.402 -200.399 72.825 -205.381 76.885 -200.018 73.248 -210.363 73.248 -210.363"/></g><g id="node7" class="node"><title>image_loader_stb_t</title><polygon fill="none" stroke="#000" points="3.991 -1 3.991 -37 128.009 -37 128.009 -1 3.991 -1"/><text x="66" y="-15.797" font-family="Courier New" font-size="10" text-anchor="middle">image_loader_stb_t</text></g><g id="edge7" class="edge"><title>image_loader_stb_t-&gt;image_loader_t</title><path fill="none" stroke="#000" stroke-dasharray="5 2" d="M66,-37.0084C66,-51.9108 66,-73.9444 66,-91.977"/><polygon fill="none" stroke="#000" points="62.5 -92.048 66 -102.048 69.5 -92.048 62.5 -92.048"/></g></g></svg>