<svg xmlns="http://www.w3.org/2000/svg" xmlns:xlink="http://www.w3.org/1999/xlink" width="242pt" height="132" viewBox="0 0 242 99"><g id="graph1" class="graph" transform="scale(1 1) rotate(0) translate(4 95)"><title>G</title><polygon fill="#fff" stroke="#fff" points="-4 5 -4 -95 239 -95 239 5 -4 5"/><g id="node1" class="node"><title>self_layout</title><polygon fill="none" stroke="#000" points="124.394 -55 124.394 -91 219.606 -91 219.606 -55 124.394 -55"/><text x="172" y="-69.5" font-family="Courier New" font-size="12" text-anchor="middle">self_layout</text></g><g id="node3" class="node"><title>widget_t</title><polygon fill="none" stroke="#000" points=".195 -27 .195 -63 73.805 -63 73.805 -27 .195 -27"/><text x="37" y="-41.5" font-family="Courier New" font-size="12" text-anchor="middle">widget_t</text></g><g id="edge2" class="edge"><title>self_layout-&gt;widget_t</title><path fill="none" stroke="#000" d="M124.109,-63.1282C111.769,-60.5303 98.4398,-57.7242 86.0403,-55.1137"/><polygon fill="none" stroke="#000" points="85.764 -55.056 79.069 -57.734 74.022 -52.584 80.717 -49.905 85.764 -55.056"/></g><g id="node4" class="node"><title>children_layout</title><polygon fill="none" stroke="#000" points="109.991 0 109.991 -36 234.009 -36 234.009 0 109.991 0"/><text x="172" y="-14.5" font-family="Courier New" font-size="12" text-anchor="middle">children_layout</text></g><g id="edge4" class="edge"><title>children_layout-&gt;widget_t</title><path fill="none" stroke="#000" d="M109.95,-30.3937C101.883,-32.0312 93.7089,-33.6907 85.9061,-35.2747"/><polygon fill="none" stroke="#000" points="85.779 -35.3 80.695 -40.414 74.019 -37.688 79.103 -32.574 85.779 -35.3"/></g></g></svg>