<svg xmlns="http://www.w3.org/2000/svg" xmlns:xlink="http://www.w3.org/1999/xlink" width="619pt" height="194pt" viewBox="0 0 619 194"><g id="graph1" class="graph" transform="scale(1 1) rotate(0) translate(4 190)"><title>G</title><polygon fill="#fff" stroke="#fff" points="-4 5 -4 -190 616 -190 616 5 -4 5"/><g id="node1" class="node"><title>lcd_mem_fragment_t</title><polygon fill="none" stroke="#000" points="-.811 -75 -.811 -111 144.811 -111 144.811 -75 -.811 -75"/><text x="72" y="-89.156" font-family="Courier New" font-size="12" text-anchor="middle">lcd_mem_fragment_t</text></g><g id="node3" class="node"><title>lcd_t</title><polygon fill="none" stroke="#000" points="282.997 -149 282.997 -185 335.003 -185 335.003 -149 282.997 -149"/><text x="309" y="-163.156" font-family="Courier New" font-size="12" text-anchor="middle">lcd_t</text></g><g id="edge2" class="edge"><title>lcd_mem_fragment_t-&gt;lcd_t</title><path fill="none" stroke="#000" d="M128.166,-111.063C173.024,-124.691 234.543,-143.38 273.017,-155.068"/><polygon fill="none" stroke="#000" points="272.165 -158.468 282.751 -158.026 274.2 -151.77 272.165 -158.468"/></g><g id="node4" class="node"><title>lcd_mono_t</title><polygon fill="none" stroke="#000" points="162.994 -75 162.994 -111 251.006 -111 251.006 -75 162.994 -75"/><text x="207" y="-89.156" font-family="Courier New" font-size="12" text-anchor="middle">lcd_mono_t</text></g><g id="edge4" class="edge"><title>lcd_mono_t-&gt;lcd_t</title><path fill="none" stroke="#000" d="M231.173,-111.063C244.666,-120.588 261.662,-132.585 276.327,-142.937"/><polygon fill="none" stroke="#000" points="274.459 -145.902 284.647 -148.81 278.496 -140.184 274.459 -145.902"/></g><g id="node6" class="node"><title>lcd_mem_t</title><polygon fill="none" stroke="#000" points="268.595 -75 268.595 -111 349.405 -111 349.405 -75 268.595 -75"/><text x="309" y="-89.156" font-family="Courier New" font-size="12" text-anchor="middle">lcd_mem_t</text></g><g id="edge6" class="edge"><title>lcd_mem_t-&gt;lcd_t</title><path fill="none" stroke="#000" d="M309,-111.063C309,-119.193 309,-129.124 309,-138.295"/><polygon fill="none" stroke="#000" points="305.5 -138.559 309 -148.559 312.5 -138.559 305.5 -138.559"/></g><g id="node8" class="node"><title>lcd_vgcanvas_t</title><polygon fill="none" stroke="#000" points="367.592 -75 367.592 -111 484.408 -111 484.408 -75 367.592 -75"/><text x="426" y="-89.156" font-family="Courier New" font-size="12" text-anchor="middle">lcd_vgcanvas_t</text></g><g id="edge8" class="edge"><title>lcd_vgcanvas_t-&gt;lcd_t</title><path fill="none" stroke="#000" d="M398.273,-111.063C382.045,-121.049 361.401,-133.753 344.054,-144.429"/><polygon fill="none" stroke="#000" points="342.005 -141.579 335.323 -149.801 345.674 -147.541 342.005 -141.579"/></g><g id="node10" class="node"><title>lcd_profile_t</title><polygon fill="none" stroke="#000" points="502.192 -75 502.192 -111 611.808 -111 611.808 -75 502.192 -75"/><text x="557" y="-89.156" font-family="Courier New" font-size="12" text-anchor="middle">lcd_profile_t</text></g><g id="edge10" class="edge"><title>lcd_profile_t-&gt;lcd_t</title><path fill="none" stroke="#000" d="M501.961,-109.979C454.076,-123.881 386.073,-143.624 344.891,-155.58"/><polygon fill="none" stroke="#000" points="343.655 -152.294 335.028 -158.444 345.607 -159.017 343.655 -152.294"/></g><g id="node12" class="node"><title>lcd_mem_xxx</title><polygon fill="none" stroke="#000" points="197.394 -1 197.394 -37 292.606 -37 292.606 -1 197.394 -1"/><text x="245" y="-15.156" font-family="Courier New" font-size="12" text-anchor="middle">lcd_mem_xxx</text></g><g id="edge12" class="edge"><title>lcd_mem_xxx-&gt;lcd_mem_t</title><path fill="none" stroke="#000" d="M260.167,-37.063C270.221,-48.374 283.375,-63.1718 293.497,-74.5593"/></g><g id="node14" class="node"><title>lcd_mem_special</title><polygon fill="none" stroke="#000" points="310.991 -1 310.991 -37 435.009 -37 435.009 -1 310.991 -1"/><text x="373" y="-15.156" font-family="Courier New" font-size="12" text-anchor="middle">lcd_mem_special</text></g><g id="edge14" class="edge"><title>lcd_mem_special-&gt;lcd_mem_t</title><path fill="none" stroke="#000" d="M357.833,-37.063C347.779,-48.374 334.625,-63.1718 324.503,-74.5593"/></g></g></svg>