<svg xmlns="http://www.w3.org/2000/svg" xmlns:xlink="http://www.w3.org/1999/xlink" width="1420" height="160" viewBox="0 0 1065 120"><g id="graph1" class="graph" transform="scale(1 1) rotate(0) translate(4 116)"><title>G</title><polygon fill="#fff" stroke="#fff" points="-4 5 -4 -116 1062 -116 1062 5 -4 5"/><g id="node1" class="node"><title>mem_allocator_simple_t</title><polygon fill="none" stroke="#000" points="-.213 -1 -.213 -37 174.213 -37 174.213 -1 -.213 -1"/><text x="87" y="-15.156" font-family="Courier New" font-size="12" text-anchor="middle">mem_allocator_simple_t</text></g><g id="node3" class="node"><title>mem_allocator_t</title><polygon fill="none" stroke="#000" points="469.991 -75 469.991 -111 594.009 -111 594.009 -75 469.991 -75"/><text x="532" y="-89.156" font-family="Courier New" font-size="12" text-anchor="middle">mem_allocator_t</text></g><g id="edge2" class="edge"><title>mem_allocator_simple_t-&gt;mem_allocator_t</title><path fill="none" stroke="#000" d="M174.228,-36.3123C177.526,-36.8891 180.792,-37.4536 184,-38 279.217,-54.2185 389.443,-70.9844 459.892,-81.4456"/><polygon fill="none" stroke="#000" points="459.586 -84.938 469.991 -82.942 460.612 -78.014 459.586 -84.938"/></g><g id="node4" class="node"><title>mem_allocator_std_t</title><polygon fill="none" stroke="#000" points="192.589 -1 192.589 -37 345.411 -37 345.411 -1 192.589 -1"/><text x="269" y="-15.156" font-family="Courier New" font-size="12" text-anchor="middle">mem_allocator_std_t</text></g><g id="edge4" class="edge"><title>mem_allocator_std_t-&gt;mem_allocator_t</title><path fill="none" stroke="#000" d="M331.327,-37.063C369.918,-47.6277 419.619,-61.2342 459.904,-72.2626"/><polygon fill="none" stroke="#000" points="459.096 -75.67 469.665 -74.935 460.944 -68.918 459.096 -75.67"/></g><g id="node6" class="node"><title>mem_allocator_lock_t</title><polygon fill="none" stroke="#000" points="362.988 -1 362.988 -37 523.012 -37 523.012 -1 362.988 -1"/><text x="443" y="-15.156" font-family="Courier New" font-size="12" text-anchor="middle">mem_allocator_lock_t</text></g><g id="edge6" class="edge"><title>mem_allocator_lock_t-&gt;mem_allocator_t</title><path fill="none" stroke="#000" d="M464.092,-37.063C475.645,-46.4098 490.142,-58.1375 502.771,-68.3544"/><polygon fill="none" stroke="#000" points="500.775 -71.242 510.751 -74.81 505.178 -65.799 500.775 -71.242"/></g><g id="node8" class="node"><title>mem_allocator_pool_t</title><polygon fill="none" stroke="#000" points="540.988 -1 540.988 -37 701.012 -37 701.012 -1 540.988 -1"/><text x="621" y="-15.156" font-family="Courier New" font-size="12" text-anchor="middle">mem_allocator_pool_t</text></g><g id="edge8" class="edge"><title>mem_allocator_pool_t-&gt;mem_allocator_t</title><path fill="none" stroke="#000" d="M599.908,-37.063C588.355,-46.4098 573.858,-58.1375 561.229,-68.3544"/><polygon fill="none" stroke="#000" points="558.822 -65.799 553.249 -74.81 563.225 -71.242 558.822 -65.799"/></g><g id="node10" class="node"><title>mem_allocator_debug_t</title><polygon fill="none" stroke="#000" points="719.388 -1 719.388 -37 886.612 -37 886.612 -1 719.388 -1"/><text x="803" y="-15.156" font-family="Courier New" font-size="12" text-anchor="middle">mem_allocator_debug_t</text></g><g id="edge10" class="edge"><title>mem_allocator_debug_t-&gt;mem_allocator_t</title><path fill="none" stroke="#000" d="M738.777,-37.063C698.349,-47.804 646.086,-61.6892 604.219,-72.8127"/><polygon fill="none" stroke="#000" points="603.128 -69.481 594.362 -75.432 604.925 -76.246 603.128 -69.481"/></g><g id="node12" class="node"><title>mem_allocator_oom_t</title><polygon fill="none" stroke="#000" points="904.589 -1 904.589 -37 1057.41 -37 1057.41 -1 904.589 -1"/><text x="981" y="-15.156" font-family="Courier New" font-size="12" text-anchor="middle">mem_allocator_oom_t</text></g><g id="edge12" class="edge"><title>mem_allocator_oom_t-&gt;mem_allocator_t</title><path fill="none" stroke="#000" d="M904.149,-36.318C901.062,-36.8997 898.003,-37.4628 895,-38 794.515,-55.9739 677.628,-72.6007 604.225,-82.5265"/><polygon fill="none" stroke="#000" points="603.606 -79.078 594.163 -83.882 604.541 -86.016 603.606 -79.078"/></g></g></svg>