<svg xmlns="http://www.w3.org/2000/svg" xmlns:xlink="http://www.w3.org/1999/xlink" width="274pt" height="268pt" viewBox="0 0 274 268"><g id="graph1" class="graph" transform="scale(1 1) rotate(0) translate(4 264)"><title>UML</title><polygon fill="#fff" stroke="#fff" points="-4 5 -4 -264 271 -264 271 5 -4 5"/><g id="graph2" class="cluster"><title>cluster_0</title><polygon fill="none" stroke="#000" points="8 -140 8 -194 206 -194 206 -140 8 -140"/></g><g id="graph3" class="cluster"><title>cluster_1</title><polygon fill="none" stroke="#000" points="24 -66 24 -120 258 -120 258 -66 24 -66"/></g><g id="node1" class="node"><title>style_t</title><polygon fill="none" stroke="#000" points="139.997 -149 139.997 -185 198.003 -185 198.003 -149 139.997 -149"/><text x="169" y="-163.797" font-family="Courier New" font-size="10" text-anchor="middle">style_t</text></g><g id="node3" class="node"><title>widget_t</title><polygon fill="none" stroke="#000" points="86.996 -223 86.996 -259 151.004 -259 151.004 -223 86.996 -223"/><text x="119" y="-237.797" font-family="Courier New" font-size="10" text-anchor="middle">widget_t</text></g><g id="edge2" class="edge"><title>style_t-&gt;widget_t</title><path fill="none" stroke="#000" d="M157.151,-185.063C149.296,-196.374 139.02,-211.172 131.112,-222.559"/></g><g id="node4" class="node"><title>style_factory_t</title><polygon fill="none" stroke="#000" points="15.993 -149 15.993 -185 122.007 -185 122.007 -149 15.993 -149"/><text x="69" y="-163.797" font-family="Courier New" font-size="10" text-anchor="middle">style_factory_t</text></g><g id="edge7" class="edge"><title>style_factory_t-&gt;style_t</title><path fill="none" stroke="#000" d="M122.125,-167C124.597,-167 127.069,-167 129.541,-167"/><polygon fill="#000" stroke="#000" points="139.703 -167 129.703 -171.5 134.703 -167 129.703 -167 129.703 -167 129.703 -167 134.703 -167 129.703 -162.5 139.703 -167 139.703 -167"/></g><g id="edge4" class="edge"><title>style_factory_t-&gt;widget_t</title><path fill="none" stroke="#000" d="M80.8493,-185.063C88.7042,-196.374 98.9804,-211.172 106.888,-222.559"/></g><g id="node9" class="node"><title>style_const_t</title><polygon fill="none" stroke="#000" points="155.994 -75 155.994 -111 250.006 -111 250.006 -75 155.994 -75"/><text x="203" y="-89.797" font-family="Courier New" font-size="10" text-anchor="middle">style_const_t</text></g><g id="edge12" class="edge"><title>style_const_t-&gt;style_t</title><path fill="none" stroke="#000" stroke-dasharray="5 2" d="M194.942,-111.063C190.936,-119.546 186.004,-129.991 181.52,-139.487"/><polygon fill="none" stroke="#000" points="178.341 -138.022 177.236 -148.559 184.671 -141.011 178.341 -138.022"/></g><g id="node11" class="node"><title>style_mutable_t</title><polygon fill="none" stroke="#000" points="31.993 -75 31.993 -111 138.007 -111 138.007 -75 31.993 -75"/><text x="85" y="-89.797" font-family="Courier New" font-size="10" text-anchor="middle">style_mutable_t</text></g><g id="edge10" class="edge"><title>style_const_t-&gt;style_mutable_t</title><path fill="none" stroke="#000" d="M155.779,-93C153.928,-93 152.077,-93 150.226,-93"/><polygon fill="none" stroke="#000" points="150.008 -93 144.008 -97 138.008 -93 144.008 -89 150.008 -93"/></g><g id="edge14" class="edge"><title>style_mutable_t-&gt;style_t</title><path fill="none" stroke="#000" stroke-dasharray="5 2" d="M104.907,-111.063C115.708,-120.321 129.233,-131.914 141.072,-142.062"/><polygon fill="none" stroke="#000" points="139.075 -144.959 148.945 -148.81 143.63 -139.645 139.075 -144.959"/></g><g id="node14" class="node"><title>theme_t</title><polygon fill="none" stroke="#000" points="173.997 -1 173.997 -37 232.003 -37 232.003 -1 173.997 -1"/><text x="203" y="-15.797" font-family="Courier New" font-size="10" text-anchor="middle">theme_t</text></g><g id="edge16" class="edge"><title>theme_t-&gt;style_const_t</title><path fill="none" stroke="#000" d="M203,-37.063C203,-48.374 203,-63.1718 203,-74.5593"/></g></g></svg>