<svg xmlns="http://www.w3.org/2000/svg" xmlns:xlink="http://www.w3.org/1999/xlink" width="190pt" height="44pt" viewBox="0 0 190 44"><g id="graph1" class="graph" transform="scale(1 1) rotate(0) translate(4 40)"><title>UML</title><polygon fill="#fff" stroke="#fff" points="-4 5 -4 -40 187 -40 187 5 -4 5"/><g id="node1" class="node"><title>timer_t</title><polygon fill="none" stroke="#000" points="-.003 0 -.003 -36 58.003 -36 58.003 0 -.003 0"/><text x="29" y="-15" font-family="Courier New" font-size="10" text-anchor="middle">timer_t</text></g><g id="node3" class="node"><title>timer_info_t</title><polygon fill="none" stroke="#000" points="93.994 0 93.994 -36 182.006 -36 182.006 0 93.994 0"/><text x="138" y="-15" font-family="Courier New" font-size="10" text-anchor="middle">timer_info_t</text></g><g id="edge2" class="edge"><title>timer_t-&gt;timer_info_t</title><path fill="none" stroke="#000" d="M58.113,-18C65.9457,-18 74.7235,-18 83.5012,-18"/><polygon fill="#000" stroke="#000" points="93.749 -18 83.749 -22.5 88.749 -18 83.749 -18 83.749 -18 83.749 -18 88.749 -18 83.749 -13.5 93.749 -18 93.749 -18"/></g></g></svg>