<svg xmlns="http://www.w3.org/2000/svg" xmlns:xlink="http://www.w3.org/1999/xlink" width="682pt" height="264" viewBox="0 0 682 198"><g id="graph1" class="graph" transform="scale(1 1) rotate(0) translate(4 194)"><title>UML</title><polygon fill="#fff" stroke="#fff" points="-4 5 -4 -194 679 -194 679 5 -4 5"/><g id="graph2" class="cluster"><title>cluster_1</title><polygon fill="none" stroke="#000" points="161 -66 161 -182 419 -182 419 -66 161 -66"/></g><g id="node2" class="node"><title>ui_builder_t</title><polygon fill="none" stroke="#000" points="268.99 -75.219 268.99 -172.781 411.01 -172.781 411.01 -75.219 268.99 -75.219"/><text x="340" y="-158.781" font-family="Courier New" font-size="10" text-anchor="middle">ui_builder_t</text><polyline fill="none" stroke="#000" points="268.99 -151.188 411.01 -151.188"/><text x="276.99" y="-137.188" font-family="Courier New" font-size="10" text-anchor="start">+on_start(...)</text><text x="276.99" y="-123.594" font-family="Courier New" font-size="10" text-anchor="start">+on_widget_start(...)</text><text x="276.99" y="-110" font-family="Courier New" font-size="10" text-anchor="start">+on_widget_prop(...)</text><text x="276.99" y="-96.406" font-family="Courier New" font-size="10" text-anchor="start">+on_widget_end(...)</text><text x="276.99" y="-82.813" font-family="Courier New" font-size="10" text-anchor="start">+on_end(...)</text></g><g id="node3" class="node"><title>ui_loader_t</title><polygon fill="none" stroke="#000" points="168.995 -102.406 168.995 -145.594 251.005 -145.594 251.005 -102.406 168.995 -102.406"/><text x="210" y="-131.594" font-family="Courier New" font-size="10" text-anchor="middle">ui_loader_t</text><polyline fill="none" stroke="#000" points="168.995 -124 251.005 -124"/><text x="176.995" y="-110" font-family="Courier New" font-size="10" text-anchor="start">+load(...)</text></g><g id="edge3" class="edge"><title>ui_loader_t-&gt;ui_builder_t</title><path fill="none" stroke="#000" d="M251.133,-124C253.622,-124 256.112,-124 258.602,-124"/><polygon fill="#000" stroke="#000" points="268.837 -124 258.837 -128.5 263.837 -124 258.837 -124 258.837 -124 258.837 -124 263.837 -124 258.837 -119.5 268.837 -124 268.837 -124"/></g><g id="node5" class="node"><title>ui_loader_default_t</title><polygon fill="none" stroke="#000" points="-.009 -1 -.009 -37 130.009 -37 130.009 -1 -.009 -1"/><text x="65" y="-15.797" font-family="Courier New" font-size="10" text-anchor="middle">ui_loader_default_t</text></g><g id="edge5" class="edge"><title>ui_loader_default_t-&gt;ui_loader_t</title><path fill="none" stroke="#000" stroke-dasharray="5 2" d="M88.9438,-37.0084C111.662,-53.1462 146.153,-77.6465 172.515,-96.3728"/><polygon fill="none" stroke="#000" points="170.584 -99.294 180.763 -102.232 174.638 -93.587 170.584 -99.294"/></g><g id="node7" class="node"><title>ui_loader_xml_t</title><polygon fill="none" stroke="#000" points="147.993 -1 147.993 -37 254.007 -37 254.007 -1 147.993 -1"/><text x="201" y="-15.797" font-family="Courier New" font-size="10" text-anchor="middle">ui_loader_xml_t</text></g><g id="edge7" class="edge"><title>ui_loader_xml_t-&gt;ui_loader_t</title><path fill="none" stroke="#000" stroke-dasharray="5 2" d="M202.486,-37.0084C203.788,-51.9108 205.714,-73.9444 207.289,-91.977"/><polygon fill="none" stroke="#000" points="203.812 -92.39 208.169 -102.048 210.785 -91.781 203.812 -92.39"/></g><g id="node9" class="node"><title>ui_builder_default_t</title><polygon fill="none" stroke="#000" points="271.99 -1 271.99 -37 408.01 -37 408.01 -1 271.99 -1"/><text x="340" y="-15.797" font-family="Courier New" font-size="10" text-anchor="middle">ui_builder_default_t</text></g><g id="edge9" class="edge"><title>ui_builder_default_t-&gt;ui_builder_t</title><path fill="none" stroke="#000" stroke-dasharray="5 2" d="M340,-37.0084C340,-44.8078 340,-54.5605 340,-64.6706"/><polygon fill="none" stroke="#000" points="336.5 -64.841 340 -74.841 343.5 -64.841 336.5 -64.841"/></g><g id="node11" class="node"><title>ui_xml_writer_t</title><polygon fill="none" stroke="#000" points="425.993 -1 425.993 -37 532.007 -37 532.007 -1 425.993 -1"/><text x="479" y="-15.797" font-family="Courier New" font-size="10" text-anchor="middle">ui_xml_writer_t</text></g><g id="edge11" class="edge"><title>ui_xml_writer_t-&gt;ui_builder_t</title><path fill="none" stroke="#000" stroke-dasharray="5 2" d="M456.047,-37.0084C444.031,-45.9126 428.578,-57.3627 412.895,-68.9841"/><polygon fill="none" stroke="#000" points="410.641 -66.299 404.69 -75.064 414.808 -71.923 410.641 -66.299"/></g><g id="node13" class="node"><title>ui_binary_writer_t</title><polygon fill="none" stroke="#000" points="549.991 -1 549.991 -37 674.009 -37 674.009 -1 549.991 -1"/><text x="612" y="-15.797" font-family="Courier New" font-size="10" text-anchor="middle">ui_binary_writer_t</text></g><g id="edge13" class="edge"><title>ui_binary_writer_t-&gt;ui_builder_t</title><path fill="none" stroke="#000" stroke-dasharray="5 2" d="M567.085,-37.0084C527.335,-52.0608 468.372,-74.3887 420.49,-92.5202"/><polygon fill="none" stroke="#000" points="419.183 -89.273 411.071 -96.087 421.662 -95.819 419.183 -89.273"/></g></g></svg>