<svg xmlns="http://www.w3.org/2000/svg" xmlns:xlink="http://www.w3.org/1999/xlink" width="584" height="2711pt" viewBox="0 0 438 2711"><g id="graph1" class="graph" transform="scale(1 1) rotate(0) translate(4 2707)"><title>G</title><polygon fill="#fff" stroke="#fff" points="-4 5 -4 -2707 435 -2707 435 5 -4 5"/><g id="node1" class="node"><title>edit_t</title><polygon fill="none" stroke="#000" points="153.396 -27 153.396 -63 212.604 -63 212.604 -27 153.396 -27"/><text x="183" y="-41.5" font-family="Courier New" font-size="12" text-anchor="middle">edit_t</text></g><g id="node3" class="node"><title>widget_t</title><polygon fill="none" stroke="#000" points=".195 -1292 .195 -1328 73.805 -1328 73.805 -1292 .195 -1292"/><text x="37" y="-1306.5" font-family="Courier New" font-size="12" text-anchor="middle">widget_t</text></g><g id="edge2" class="edge"><title>edit_t-&gt;widget_t</title><path fill="none" stroke="#000" d="M153.212,-48.6722C137.82,-52.2283 120.022,-59.2269 110,-73 36.661,-173.793 37.1021,-1106.07 37.8421,-1281.58"/><polygon fill="none" stroke="#000" points="34.343 -1281.83 37.889 -1291.82 41.343 -1281.8 34.343 -1281.83"/></g><g id="node4" class="node"><title>image_base_t</title><polygon fill="none" stroke="#000" points="131.793 -2584 131.793 -2620 234.207 -2620 234.207 -2584 131.793 -2584"/><text x="183" y="-2598.5" font-family="Courier New" font-size="12" text-anchor="middle">image_base_t</text></g><g id="edge4" class="edge"><title>image_base_t-&gt;widget_t</title><path fill="none" stroke="#000" d="M171.598,-2583.93C155.15,-2554.34 123.611,-2493.2 110,-2437 57.2644,-2219.27 41.3052,-1492.15 38.4875,-1338.62"/><polygon fill="none" stroke="#000" points="41.979 -1338.13 38.3 -1328.19 34.98 -1338.25 41.979 -1338.13"/></g><g id="node6" class="node"><title>window_base_t</title><polygon fill="none" stroke="#000" points="128.192 -2392 128.192 -2428 237.808 -2428 237.808 -2392 128.192 -2392"/><text x="183" y="-2406.5" font-family="Courier New" font-size="12" text-anchor="middle">window_base_t</text></g><g id="edge6" class="edge"><title>window_base_t-&gt;widget_t</title><path fill="none" stroke="#000" d="M128.032,-2397.11C121.034,-2393.3 114.684,-2388.38 110,-2382 46.5191,-2295.57 38.9881,-1499.37 38.1129,-1338.32"/><polygon fill="none" stroke="#000" points="41.612 -1338.23 38.063 -1328.24 34.613 -1338.26 41.612 -1338.23"/></g><g id="node8" class="node"><title>label_t</title><polygon fill="none" stroke="#000" points="149.796 -2337 149.796 -2373 216.204 -2373 216.204 -2337 149.796 -2337"/><text x="183" y="-2351.5" font-family="Courier New" font-size="12" text-anchor="middle">label_t</text></g><g id="edge8" class="edge"><title>label_t-&gt;widget_t</title><path fill="none" stroke="#000" d="M149.607,-2350.37C135.151,-2346.56 119.312,-2339.63 110,-2327 49.8014,-2245.35 39.6802,-1494.38 38.2223,-1338.32"/><polygon fill="none" stroke="#000" points="41.721 -1338.1 38.132 -1328.13 34.721 -1338.16 41.721 -1338.1"/></g><g id="node10" class="node"><title>button_t</title><polygon fill="none" stroke="#000" points="146.195 -2282 146.195 -2318 219.805 -2318 219.805 -2282 146.195 -2282"/><text x="183" y="-2296.5" font-family="Courier New" font-size="12" text-anchor="middle">button_t</text></g><g id="edge10" class="edge"><title>button_t-&gt;widget_t</title><path fill="none" stroke="#000" d="M145.898,-2294.31C132.518,-2290.32 118.539,-2283.53 110,-2272 53.1243,-2195.18 40.4308,-1490.37 38.349,-1338.68"/><polygon fill="none" stroke="#000" points="41.844 -1338.3 38.212 -1328.35 34.845 -1338.39 41.844 -1338.3"/></g><g id="node12" class="node"><title>color_tile_t</title><polygon fill="none" stroke="#000" points="131.793 -2227 131.793 -2263 234.207 -2263 234.207 -2227 131.793 -2227"/><text x="183" y="-2241.5" font-family="Courier New" font-size="12" text-anchor="middle">color_tile_t</text></g><g id="edge12" class="edge"><title>color_tile_t-&gt;widget_t</title><path fill="none" stroke="#000" d="M131.714,-2233.89C123.3,-2229.88 115.523,-2224.43 110,-2217 56.3627,-2144.89 41.1904,-1484.24 38.4821,-1338.4"/><polygon fill="none" stroke="#000" points="41.976 -1338.01 38.295 -1328.07 34.977 -1338.13 41.976 -1338.01"/></g><g id="node14" class="node"><title>combo_box_item_t</title><polygon fill="none" stroke="#000" points="117.391 -2172 117.391 -2208 248.609 -2208 248.609 -2172 117.391 -2172"/><text x="183" y="-2186.5" font-family="Courier New" font-size="12" text-anchor="middle">combo_box_item_t</text></g><g id="edge14" class="edge"><title>combo_box_item_t-&gt;widget_t</title><path fill="none" stroke="#000" d="M119.955,-2171.83C116.2,-2169.01 112.811,-2165.76 110,-2162 59.6349,-2094.65 42.0183,-1478.92 38.6375,-1338.44"/><polygon fill="none" stroke="#000" points="42.128 -1338.01 38.394 -1328.09 35.13 -1338.17 42.128 -1338.01"/></g><g id="node16" class="node"><title>slider_t</title><polygon fill="none" stroke="#000" points="146.195 -2117 146.195 -2153 219.805 -2153 219.805 -2117 146.195 -2117"/><text x="183" y="-2131.5" font-family="Courier New" font-size="12" text-anchor="middle">slider_t</text></g><g id="edge16" class="edge"><title>slider_t-&gt;widget_t</title><path fill="none" stroke="#000" d="M145.988,-2129.24C132.621,-2125.24 118.628,-2118.47 110,-2107 62.8799,-2044.37 42.8865,-1472.89 38.8088,-1338.3"/><polygon fill="none" stroke="#000" points="42.298 -1337.89 38.502 -1328 35.302 -1338.1 42.298 -1337.89"/></g><g id="node18" class="node"><title>progress_bar_t</title><polygon fill="none" stroke="#000" points="124.592 -2062 124.592 -2098 241.408 -2098 241.408 -2062 124.592 -2062"/><text x="183" y="-2076.5" font-family="Courier New" font-size="12" text-anchor="middle">progress_bar_t</text></g><g id="edge18" class="edge"><title>progress_bar_t-&gt;widget_t</title><path fill="none" stroke="#000" d="M124.343,-2064.75C118.848,-2061.32 113.887,-2057.13 110,-2052 66.1451,-1994.11 43.8425,-1467.32 39.0125,-1338.38"/><polygon fill="none" stroke="#000" points="42.501 -1338.01 38.635 -1328.14 35.506 -1338.26 42.501 -1338.01"/></g><g id="node20" class="node"><title>app_bar_t</title><polygon fill="none" stroke="#000" points="142.595 -2007 142.595 -2043 223.405 -2043 223.405 -2007 142.595 -2007"/><text x="183" y="-2021.5" font-family="Courier New" font-size="12" text-anchor="middle">app_bar_t</text></g><g id="edge70" class="edge"><title>app_bar_t-&gt;widget_t</title><path fill="none" stroke="#000" d="M142.315,-2009.47C130.145,-2004.86 117.896,-1998.34 110,-1988 69.7292,-1935.26 45.2753,-1460.24 39.3888,-1338.32"/><polygon fill="none" stroke="#000" points="42.882 -1338.09 38.907 -1328.27 35.89 -1338.42 42.882 -1338.09"/></g><g id="edge20" class="edge"><title>app_bar_t-&gt;widget_t</title><path fill="none" stroke="#000" d="M142.315,-2026.49C130.145,-2022.86 117.896,-2016.34 110,-2006 69.0669,-1952.4 44.4751,-1462.5 39.1135,-1338.38"/><polygon fill="none" stroke="#000" points="42.601 -1338.01 38.681 -1328.16 35.607 -1338.3 42.601 -1338.01"/></g><g id="node22" class="node"><title>row_t</title><polygon fill="none" stroke="#000" points="156.997 -1952 156.997 -1988 209.003 -1988 209.003 -1952 156.997 -1952"/><text x="183" y="-1966.5" font-family="Courier New" font-size="12" text-anchor="middle">row_t</text></g><g id="edge22" class="edge"><title>row_t-&gt;widget_t</title><path fill="none" stroke="#000" d="M156.711,-1966.83C140.76,-1963.45 121.135,-1956.45 110,-1942 35.8596,-1845.81 35.969,-1448.39 37.4704,-1338.35"/><polygon fill="none" stroke="#000" points="40.974 -1338.11 37.627 -1328.06 33.975 -1338 40.974 -1338.11"/></g><g id="node24" class="node"><title>column_t</title><polygon fill="none" stroke="#000" points="146.195 -1897 146.195 -1933 219.805 -1933 219.805 -1897 146.195 -1897"/><text x="183" y="-1911.5" font-family="Courier New" font-size="12" text-anchor="middle">column_t</text></g><g id="edge24" class="edge"><title>column_t-&gt;widget_t</title><path fill="none" stroke="#000" d="M146.185,-1909.09C132.847,-1905.07 118.822,-1898.32 110,-1887 42.2739,-1800.1 37.6961,-1441.91 37.8176,-1338.24"/><polygon fill="none" stroke="#000" points="41.318 -1338.22 37.846 -1328.21 34.318 -1338.2 41.318 -1338.22"/></g><g id="node26" class="node"><title>grid_t</title><polygon fill="none" stroke="#000" points="153.396 -1842 153.396 -1878 212.604 -1878 212.604 -1842 153.396 -1842"/><text x="183" y="-1856.5" font-family="Courier New" font-size="12" text-anchor="middle">grid_t</text></g><g id="edge26" class="edge"><title>grid_t-&gt;widget_t</title><path fill="none" stroke="#000" d="M153.259,-1855.93C138.08,-1852.25 120.474,-1845.26 110,-1832 48.715,-1754.4 39.5913,-1435.65 38.2358,-1338.34"/><polygon fill="none" stroke="#000" points="41.733 -1338.06 38.111 -1328.1 34.733 -1338.15 41.733 -1338.06"/></g><g id="node28" class="node"><title>grid_item_t</title><polygon fill="none" stroke="#000" points="135.394 -1787 135.394 -1823 230.606 -1823 230.606 -1787 135.394 -1787"/><text x="183" y="-1801.5" font-family="Courier New" font-size="12" text-anchor="middle">grid_item_t</text></g><g id="edge28" class="edge"><title>grid_item_t-&gt;widget_t</title><path fill="none" stroke="#000" d="M135.105,-1794.89C125.555,-1790.8 116.465,-1785.05 110,-1777 55.0992,-1708.61 41.6806,-1428.71 38.7487,-1338.3"/><polygon fill="none" stroke="#000" points="42.245 -1338.13 38.441 -1328.24 35.248 -1338.34 42.245 -1338.13"/></g><g id="node30" class="node"><title>group_box_t</title><polygon fill="none" stroke="#000" points="135.394 -1732 135.394 -1768 230.606 -1768 230.606 -1732 135.394 -1732"/><text x="183" y="-1746.5" font-family="Courier New" font-size="12" text-anchor="middle">group_box_t</text></g><g id="edge68" class="edge"><title>group_box_t-&gt;widget_t</title><path fill="none" stroke="#000" d="M137.09,-1731.86C126.863,-1727.44 116.97,-1721.51 110,-1713 62.2123,-1654.68 44.5754,-1419.84 39.6197,-1338.07"/><polygon fill="none" stroke="#000" points="43.109 -1337.79 39.027 -1328.01 36.121 -1338.2 43.109 -1337.79"/></g><g id="edge30" class="edge"><title>group_box_t-&gt;widget_t</title><path fill="none" stroke="#000" d="M135.223,-1748.55C125.667,-1744.7 116.545,-1738.99 110,-1731 60.7307,-1670.87 43.5107,-1423.11 39.1948,-1338.38"/><polygon fill="none" stroke="#000" points="42.682 -1338.03 38.7 -1328.21 35.69 -1338.37 42.682 -1338.03"/></g><g id="node32" class="node"><title>view_t</title><polygon fill="none" stroke="#000" points="153.396 -1677 153.396 -1713 212.604 -1713 212.604 -1677 153.396 -1677"/><text x="183" y="-1691.5" font-family="Courier New" font-size="12" text-anchor="middle">view_t</text></g><g id="edge32" class="edge"><title>view_t-&gt;widget_t</title><path fill="none" stroke="#000" d="M153.213,-1690.59C138.212,-1686.8 120.793,-1679.83 110,-1667 67.8075,-1616.85 46.7346,-1413.82 40.2444,-1338.39"/><polygon fill="none" stroke="#000" points="43.715 -1337.9 39.392 -1328.22 36.74 -1338.48 43.715 -1337.9"/></g><g id="node34" class="node"><title>button_group_t</title><polygon fill="none" stroke="#000" points="124.592 -1622 124.592 -1658 241.408 -1658 241.408 -1622 124.592 -1622"/><text x="183" y="-1636.5" font-family="Courier New" font-size="12" text-anchor="middle">button_group_t</text></g><g id="edge34" class="edge"><title>button_group_t-&gt;widget_t</title><path fill="none" stroke="#000" d="M124.323,-1623.78C118.976,-1620.53 114.054,-1616.65 110,-1612 74.1012,-1570.82 49.9092,-1405.49 41.3936,-1338.45"/><polygon fill="none" stroke="#000" points="44.827 -1337.7 40.118 -1328.21 37.881 -1338.56 44.827 -1337.7"/></g><g id="node36" class="node"><title>dialog_title_t</title><polygon fill="none" stroke="#000" points="124.592 -1567 124.592 -1603 241.408 -1603 241.408 -1567 124.592 -1567"/><text x="183" y="-1581.5" font-family="Courier New" font-size="12" text-anchor="middle">dialog_title_t</text></g><g id="edge36" class="edge"><title>dialog_title_t-&gt;widget_t</title><path fill="none" stroke="#000" d="M124.553,-1568.57C119.163,-1565.37 114.168,-1561.55 110,-1557 52.648,-1494.41 40.7689,-1388.62 38.4545,-1338.27"/><polygon fill="none" stroke="#000" points="41.947 -1337.98 38.085 -1328.12 34.951 -1338.24 41.947 -1337.98"/></g><g id="node38" class="node"><title>dialog_client_t</title><polygon fill="none" stroke="#000" points="120.991 -1512 120.991 -1548 245.009 -1548 245.009 -1512 120.991 -1512"/><text x="183" y="-1526.5" font-family="Courier New" font-size="12" text-anchor="middle">dialog_client_t</text></g><g id="edge38" class="edge"><title>dialog_client_t-&gt;widget_t</title><path fill="none" stroke="#000" d="M122.777,-1511.99C118.12,-1509.12 113.77,-1505.82 110,-1502 64.7727,-1456.22 47.5177,-1379.36 41.2819,-1338.14"/><polygon fill="none" stroke="#000" points="44.747 -1337.65 39.893 -1328.23 37.815 -1338.62 44.747 -1337.65"/></g><g id="node40" class="node"><title>window_t</title><polygon fill="none" stroke="#000" points="324.195 -2502 324.195 -2538 397.805 -2538 397.805 -2502 324.195 -2502"/><text x="361" y="-2516.5" font-family="Courier New" font-size="12" text-anchor="middle">window_t</text></g><g id="edge40" class="edge"><title>window_t-&gt;window_base_t</title><path fill="none" stroke="#000" d="M323.883,-2507.15C313.337,-2502.87 301.972,-2497.71 292,-2492 263.142,-2475.48 233.25,-2452.22 212.251,-2434.7"/><polygon fill="none" stroke="#000" points="214.279 -2431.83 204.381 -2428.05 209.762 -2437.18 214.279 -2431.83"/></g><g id="node42" class="node"><title>popup_t</title><polygon fill="none" stroke="#000" points="327.796 -2447 327.796 -2483 394.204 -2483 394.204 -2447 327.796 -2447"/><text x="361" y="-2461.5" font-family="Courier New" font-size="12" text-anchor="middle">popup_t</text></g><g id="edge42" class="edge"><title>popup_t-&gt;window_base_t</title><path fill="none" stroke="#000" d="M327.719,-2454.91C305.358,-2447.92 274.843,-2438.39 247.682,-2429.9"/><polygon fill="none" stroke="#000" points="248.437 -2426.47 237.848 -2426.83 246.349 -2433.15 248.437 -2426.47"/></g><g id="node44" class="node"><title>dialog_t</title><polygon fill="none" stroke="#000" points="324.195 -2392 324.195 -2428 397.805 -2428 397.805 -2392 324.195 -2392"/><text x="361" y="-2406.5" font-family="Courier New" font-size="12" text-anchor="middle">dialog_t</text></g><g id="edge44" class="edge"><title>dialog_t-&gt;window_base_t</title><path fill="none" stroke="#000" d="M323.959,-2410C302.118,-2410 273.625,-2410 248.052,-2410"/><polygon fill="none" stroke="#000" points="248.045 -2406.5 238.045 -2410 248.045 -2413.5 248.045 -2406.5"/></g><g id="node46" class="node"><title>calibration_win_t</title><polygon fill="none" stroke="#000" points="291.79 -2337 291.79 -2373 430.21 -2373 430.21 -2337 291.79 -2337"/><text x="361" y="-2351.5" font-family="Courier New" font-size="12" text-anchor="middle">calibration_win_t</text></g><g id="edge46" class="edge"><title>calibration_win_t-&gt;window_base_t</title><path fill="none" stroke="#000" d="M302.371,-2373.01C284.861,-2378.48 265.523,-2384.52 247.642,-2390.11"/><polygon fill="none" stroke="#000" points="246.379 -2386.84 237.878 -2393.16 248.467 -2393.52 246.379 -2386.84"/></g><g id="node48" class="node"><title>system_bar_t</title><polygon fill="none" stroke="#000" points="309.793 -2282 309.793 -2318 412.207 -2318 412.207 -2282 309.793 -2282"/><text x="361" y="-2296.5" font-family="Courier New" font-size="12" text-anchor="middle">system_bar_t</text></g><g id="edge48" class="edge"><title>system_bar_t-&gt;window_base_t</title><path fill="none" stroke="#000" d="M309.759,-2316.62C303.44,-2319.86 297.332,-2323.63 292,-2328 269.693,-2346.29 278.486,-2363.93 256,-2382 253.112,-2384.32 250.008,-2386.47 246.77,-2388.45"/><polygon fill="none" stroke="#000" points="245.005 -2385.42 237.938 -2393.32 248.385 -2391.55 245.005 -2385.42"/></g><g id="node50" class="node"><title>overlay_t</title><polygon fill="none" stroke="#000" points="320.595 -2227 320.595 -2263 401.405 -2263 401.405 -2227 320.595 -2227"/><text x="361" y="-2241.5" font-family="Courier New" font-size="12" text-anchor="middle">overlay_t</text></g><g id="edge50" class="edge"><title>overlay_t-&gt;window_base_t</title><path fill="none" stroke="#000" d="M320.471,-2254.72C310.082,-2258.9 299.655,-2264.78 292,-2273 257.239,-2310.34 291.127,-2345 256,-2382 253.222,-2384.93 250.104,-2387.55 246.762,-2389.9"/><polygon fill="none" stroke="#000" points="244.775 -2387.02 238.065 -2395.22 248.423 -2392.99 244.775 -2387.02"/></g><g id="node52" class="node"><title>image_t</title><polygon fill="none" stroke="#000" points="327.796 -2667 327.796 -2703 394.204 -2703 394.204 -2667 327.796 -2667"/><text x="361" y="-2681.5" font-family="Courier New" font-size="12" text-anchor="middle">image_t</text></g><g id="edge52" class="edge"><title>image_t-&gt;image_base_t</title><path fill="none" stroke="#000" d="M327.602,-2672.28C316.256,-2667.66 303.485,-2662.28 292,-2657 270.214,-2646.99 246.424,-2634.99 226.731,-2624.76"/><polygon fill="none" stroke="#000" points="228.191 -2621.57 217.707 -2620.05 224.95 -2627.78 228.191 -2621.57"/></g><g id="node54" class="node"><title>gif_image_t</title><polygon fill="none" stroke="#000" points="313.394 -2612 313.394 -2648 408.606 -2648 408.606 -2612 313.394 -2612"/><text x="361" y="-2626.5" font-family="Courier New" font-size="12" text-anchor="middle">gif_image_t</text></g><g id="edge54" class="edge"><title>gif_image_t-&gt;image_base_t</title><path fill="none" stroke="#000" d="M313.297,-2622.57C292.191,-2619.21 266.985,-2615.2 244.457,-2611.62"/><polygon fill="none" stroke="#000" points="244.745 -2608.12 234.319 -2610.01 243.645 -2615.03 244.745 -2608.12"/></g><g id="node56" class="node"><title>svg_image_t</title><polygon fill="none" stroke="#000" points="313.394 -2557 313.394 -2593 408.606 -2593 408.606 -2557 313.394 -2557"/><text x="361" y="-2571.5" font-family="Courier New" font-size="12" text-anchor="middle">svg_image_t</text></g><g id="edge56" class="edge"><title>svg_image_t-&gt;image_base_t</title><path fill="none" stroke="#000" d="M313.297,-2582.16C292.191,-2585.4 266.985,-2589.27 244.457,-2592.73"/><polygon fill="none" stroke="#000" points="243.673 -2589.3 234.319 -2594.28 244.735 -2596.22 243.673 -2589.3"/></g><g id="node58" class="node"><title>combo_box_t</title><polygon fill="none" stroke="#000" points="313.394 -55 313.394 -91 408.606 -91 408.606 -55 313.394 -55"/><text x="361" y="-69.5" font-family="Courier New" font-size="12" text-anchor="middle">combo_box_t</text></g><g id="edge58" class="edge"><title>combo_box_t-&gt;edit_t</title><path fill="none" stroke="#000" d="M313.297,-65.57C285.068,-61.0789 249.505,-55.4213 222.825,-51.1767"/><polygon fill="none" stroke="#000" points="223.133 -47.682 212.708 -49.567 222.033 -54.595 223.133 -47.682"/></g><g id="node60" class="node"><title>spin_box_t</title><polygon fill="none" stroke="#000" points="316.994 0 316.994 -36 405.006 -36 405.006 0 316.994 0"/><text x="361" y="-14.5" font-family="Courier New" font-size="12" text-anchor="middle">spin_box_t</text></g><g id="edge60" class="edge"><title>spin_box_t-&gt;edit_t</title><path fill="none" stroke="#000" d="M316.946,-24.6049C288.25,-29.0071 250.838,-34.7465 223.014,-39.0149"/><polygon fill="none" stroke="#000" points="222.212 -35.597 212.858 -40.573 223.273 -42.516 222.212 -35.597"/></g><g id="node62" class="node"><title>tab_control_t</title><polygon fill="none" stroke="#000" points="128.192 -1457 128.192 -1493 237.808 -1493 237.808 -1457 128.192 -1457"/><text x="183" y="-1471.5" font-family="Courier New" font-size="12" text-anchor="middle">tab_control_t</text></g><g id="edge62" class="edge"><title>tab_control_t-&gt;widget_t</title><path fill="none" stroke="#000" d="M127.982,-1459.03C121.495,-1455.71 115.302,-1451.73 110,-1447 76.6881,-1417.25 56.2815,-1368.38 46.0648,-1337.76"/><polygon fill="none" stroke="#000" points="49.365 -1336.59 42.987 -1328.13 42.697 -1338.72 49.365 -1336.59"/></g><g id="node64" class="node"><title>tab_button_t</title><polygon fill="none" stroke="#000" points="131.793 -1402 131.793 -1438 234.207 -1438 234.207 -1402 131.793 -1402"/><text x="183" y="-1416.5" font-family="Courier New" font-size="12" text-anchor="middle">tab_button_t</text></g><g id="edge64" class="edge"><title>tab_button_t-&gt;widget_t</title><path fill="none" stroke="#000" d="M131.606,-1404.01C124.051,-1400.6 116.593,-1396.61 110,-1392 88.5236,-1376.97 69.2303,-1354.24 56.0336,-1336.51"/><polygon fill="none" stroke="#000" points="58.764 -1334.32 50.062 -1328.27 53.095 -1338.42 58.764 -1334.32"/></g><g id="node66" class="node"><title>tab_button_group_t</title><polygon fill="none" stroke="#000" points="110.189 -1347 110.189 -1383 255.811 -1383 255.811 -1347 110.189 -1347"/><text x="183" y="-1361.5" font-family="Courier New" font-size="12" text-anchor="middle">tab_button_group_t</text></g><g id="edge66" class="edge"><title>tab_button_group_t-&gt;widget_t</title><path fill="none" stroke="#000" d="M134.849,-1346.99C118.256,-1340.65 99.6555,-1333.55 83.2246,-1327.27"/><polygon fill="none" stroke="#000" points="84.423 -1323.98 73.833 -1323.69 81.926 -1330.52 84.423 -1323.98"/></g><g id="node70" class="node"><title>canvas_widget_t</title><polygon fill="none" stroke="#000" points="120.991 -1292 120.991 -1328 245.009 -1328 245.009 -1292 120.991 -1292"/><text x="183" y="-1306.5" font-family="Courier New" font-size="12" text-anchor="middle">canvas_widget_t</text></g><g id="edge72" class="edge"><title>canvas_widget_t-&gt;widget_t</title><path fill="none" stroke="#000" d="M120.931,-1310C108.724,-1310 96.0873,-1310 84.4696,-1310"/><polygon fill="none" stroke="#000" points="84.128 -1306.5 74.128 -1310 84.128 -1313.5 84.128 -1306.5"/></g><g id="node72" class="node"><title>color_picker_t</title><polygon fill="none" stroke="#000" points="124.592 -1237 124.592 -1273 241.408 -1273 241.408 -1237 124.592 -1237"/><text x="183" y="-1251.5" font-family="Courier New" font-size="12" text-anchor="middle">color_picker_t</text></g><g id="edge74" class="edge"><title>color_picker_t-&gt;widget_t</title><path fill="none" stroke="#000" d="M134.849,-1273.01C118.256,-1279.35 99.6555,-1286.45 83.2246,-1292.73"/><polygon fill="none" stroke="#000" points="81.926 -1289.48 73.833 -1296.31 84.423 -1296.02 81.926 -1289.48"/></g><g id="node74" class="node"><title>guage_t</title><polygon fill="none" stroke="#000" points="149.796 -1182 149.796 -1218 216.204 -1218 216.204 -1182 149.796 -1182"/><text x="183" y="-1196.5" font-family="Courier New" font-size="12" text-anchor="middle">guage_t</text></g><g id="edge76" class="edge"><title>guage_t-&gt;widget_t</title><path fill="none" stroke="#000" d="M149.531,-1208.93C136.537,-1213.41 121.868,-1219.7 110,-1228 88.5236,-1243.03 69.2303,-1265.76 56.0336,-1283.49"/><polygon fill="none" stroke="#000" points="53.095 -1281.58 50.062 -1291.73 58.764 -1285.68 53.095 -1281.58"/></g><g id="node76" class="node"><title>guage_pointer_t</title><polygon fill="none" stroke="#000" points="120.991 -1127 120.991 -1163 245.009 -1163 245.009 -1127 120.991 -1127"/><text x="183" y="-1141.5" font-family="Courier New" font-size="12" text-anchor="middle">guage_pointer_t</text></g><g id="edge78" class="edge"><title>guage_pointer_t-&gt;widget_t</title><path fill="none" stroke="#000" d="M123.986,-1163.12C118.963,-1165.97 114.202,-1169.25 110,-1173 76.6881,-1202.75 56.2815,-1251.62 46.0648,-1282.24"/><polygon fill="none" stroke="#000" points="42.697 -1281.28 42.987 -1291.87 49.365 -1283.41 42.697 -1281.28"/></g><g id="node78" class="node"><title>image_animation_t</title><polygon fill="none" stroke="#000" points="113.79 -1072 113.79 -1108 252.21 -1108 252.21 -1072 113.79 -1072"/><text x="183" y="-1086.5" font-family="Courier New" font-size="12" text-anchor="middle">image_animation_t</text></g><g id="edge80" class="edge"><title>image_animation_t-&gt;widget_t</title><path fill="none" stroke="#000" d="M122.777,-1108.01C118.12,-1110.88 113.77,-1114.18 110,-1118 64.7727,-1163.78 47.5177,-1240.64 41.2819,-1281.86"/><polygon fill="none" stroke="#000" points="37.815 -1281.38 39.893 -1291.77 44.747 -1282.35 37.815 -1281.38"/></g><g id="node80" class="node"><title>image_value_t</title><polygon fill="none" stroke="#000" points="128.192 -1017 128.192 -1053 237.808 -1053 237.808 -1017 128.192 -1017"/><text x="183" y="-1031.5" font-family="Courier New" font-size="12" text-anchor="middle">image_value_t</text></g><g id="edge82" class="edge"><title>image_value_t-&gt;widget_t</title><path fill="none" stroke="#000" d="M128.12,-1049.43C121.374,-1053.01 115.074,-1057.46 110,-1063 52.648,-1125.59 40.7689,-1231.38 38.4545,-1281.73"/><polygon fill="none" stroke="#000" points="34.951 -1281.76 38.085 -1291.88 41.947 -1282.02 34.951 -1281.76"/></g><g id="node82" class="node"><title>keyboard_t</title><polygon fill="none" stroke="#000" points="138.994 -962 138.994 -998 227.006 -998 227.006 -962 138.994 -962"/><text x="183" y="-976.5" font-family="Courier New" font-size="12" text-anchor="middle">keyboard_t</text></g><g id="edge84" class="edge"><title>keyboard_t-&gt;widget_t</title><path fill="none" stroke="#000" d="M138.944,-989.141C128.192,-993.293 117.579,-999.305 110,-1008 74.1012,-1049.18 49.9092,-1214.51 41.3936,-1281.55"/><polygon fill="none" stroke="#000" points="37.881 -1281.44 40.118 -1291.79 44.827 -1282.3 37.881 -1281.44"/></g><g id="node84" class="node"><title>progress_circle_t</title><polygon fill="none" stroke="#000" points="113.79 -907 113.79 -943 252.21 -943 252.21 -907 113.79 -907"/><text x="183" y="-921.5" font-family="Courier New" font-size="12" text-anchor="middle">progress_circle_t</text></g><g id="edge86" class="edge"><title>progress_circle_t-&gt;widget_t</title><path fill="none" stroke="#000" d="M121.091,-943.078C116.97,-945.918 113.195,-949.203 110,-953 67.8075,-1003.15 46.7346,-1206.18 40.2444,-1281.61"/><polygon fill="none" stroke="#000" points="36.74 -1281.52 39.392 -1291.78 43.715 -1282.1 36.74 -1281.52"/></g><g id="node86" class="node"><title>rich_text_t</title><polygon fill="none" stroke="#000" points="135.394 -852 135.394 -888 230.606 -888 230.606 -852 135.394 -852"/><text x="183" y="-866.5" font-family="Courier New" font-size="12" text-anchor="middle">rich_text_t</text></g><g id="edge88" class="edge"><title>rich_text_t-&gt;widget_t</title><path fill="none" stroke="#000" d="M135.223,-880.208C125.667,-884.296 116.545,-890.012 110,-898 61.5022,-957.187 44.0579,-1198.17 39.4071,-1281.49"/><polygon fill="none" stroke="#000" points="35.91 -1281.34 38.868 -1291.51 42.9 -1281.72 35.91 -1281.34"/></g><g id="node88" class="node"><title>slide_menu_t</title><polygon fill="none" stroke="#000" points="131.793 -797 131.793 -833 234.207 -833 234.207 -797 131.793 -797"/><text x="183" y="-811.5" font-family="Courier New" font-size="12" text-anchor="middle">slide_menu_t</text></g><g id="edge90" class="edge"><title>slide_menu_t-&gt;widget_t</title><path fill="none" stroke="#000" d="M131.779,-826.616C123.466,-830.579 115.709,-835.888 110,-843 55.0992,-911.388 41.6806,-1191.29 38.7487,-1281.7"/><polygon fill="none" stroke="#000" points="35.248 -1281.66 38.441 -1291.76 42.245 -1281.87 35.248 -1281.66"/></g><g id="node90" class="node"><title>slide_view_t</title><polygon fill="none" stroke="#000" points="131.793 -742 131.793 -778 234.207 -778 234.207 -742 131.793 -742"/><text x="183" y="-756.5" font-family="Courier New" font-size="12" text-anchor="middle">slide_view_t</text></g><g id="edge92" class="edge"><title>slide_view_t-&gt;widget_t</title><path fill="none" stroke="#000" d="M131.687,-771.543C123.382,-775.512 115.653,-780.843 110,-788 48.715,-865.596 39.5913,-1184.35 38.2358,-1281.66"/><polygon fill="none" stroke="#000" points="34.733 -1281.85 38.111 -1291.9 41.733 -1281.94 34.733 -1281.85"/></g><g id="node92" class="node"><title>switch_t</title><polygon fill="none" stroke="#000" points="146.195 -687 146.195 -723 219.805 -723 219.805 -687 146.195 -687"/><text x="183" y="-701.5" font-family="Courier New" font-size="12" text-anchor="middle">switch_t</text></g><g id="edge94" class="edge"><title>switch_t-&gt;widget_t</title><path fill="none" stroke="#000" d="M146.185,-710.911C132.847,-714.932 118.822,-721.681 110,-733 42.2739,-819.901 37.6961,-1178.09 37.8176,-1281.76"/><polygon fill="none" stroke="#000" points="34.318 -1281.8 37.846 -1291.79 41.318 -1281.78 34.318 -1281.8"/></g><g id="node94" class="node"><title>text_selector_t</title><polygon fill="none" stroke="#000" points="120.991 -632 120.991 -668 245.009 -668 245.009 -632 120.991 -632"/><text x="183" y="-646.5" font-family="Courier New" font-size="12" text-anchor="middle">text_selector_t</text></g><g id="edge96" class="edge"><title>text_selector_t-&gt;widget_t</title><path fill="none" stroke="#000" d="M120.728,-667.785C116.687,-670.69 113.029,-674.07 110,-678 35.8596,-774.188 35.969,-1171.61 37.4704,-1281.65"/><polygon fill="none" stroke="#000" points="33.975 -1282 37.627 -1291.94 40.974 -1281.89 33.975 -1282"/></g><g id="node96" class="node"><title>time_clock_t</title><polygon fill="none" stroke="#000" points="131.793 -577 131.793 -613 234.207 -613 234.207 -577 131.793 -577"/><text x="183" y="-591.5" font-family="Courier New" font-size="12" text-anchor="middle">time_clock_t</text></g><g id="edge98" class="edge"><title>time_clock_t-&gt;widget_t</title><path fill="none" stroke="#000" d="M131.497,-606.395C123.21,-610.378 115.535,-615.752 110,-623 69.376,-676.199 44.8475,-1159.13 39.2382,-1281.78"/><polygon fill="none" stroke="#000" points="35.737 -1281.73 38.782 -1291.88 42.73 -1282.04 35.737 -1281.73"/></g><g id="node98" class="node"><title>digit_clock_t</title><polygon fill="none" stroke="#000" points="128.192 -522 128.192 -558 237.808 -558 237.808 -522 128.192 -522"/><text x="183" y="-536.5" font-family="Courier New" font-size="12" text-anchor="middle">digit_clock_t</text></g><g id="edge100" class="edge"><title>digit_clock_t-&gt;widget_t</title><path fill="none" stroke="#000" d="M127.843,-553.212C120.962,-556.971 114.697,-561.799 110,-568 66.1451,-625.89 43.8425,-1152.68 39.0125,-1281.62"/><polygon fill="none" stroke="#000" points="35.506 -1281.74 38.635 -1291.86 42.501 -1281.99 35.506 -1281.74"/></g><g id="node100" class="node"><title>list_view_t</title><polygon fill="none" stroke="#000" points="135.394 -467 135.394 -503 230.606 -503 230.606 -467 135.394 -467"/><text x="183" y="-481.5" font-family="Courier New" font-size="12" text-anchor="middle">list_view_t</text></g><g id="edge102" class="edge"><title>list_view_t-&gt;widget_t</title><path fill="none" stroke="#000" d="M135.101,-494.661C125.43,-498.776 116.289,-504.64 110,-513 62.8799,-575.631 42.8865,-1147.11 38.8088,-1281.7"/><polygon fill="none" stroke="#000" points="35.302 -1281.9 38.502 -1292 42.298 -1282.11 35.302 -1281.9"/></g><g id="node102" class="node"><title>list_view_h_t</title><polygon fill="none" stroke="#000" points="128.192 -412 128.192 -448 237.808 -448 237.808 -412 128.192 -412"/><text x="183" y="-426.5" font-family="Courier New" font-size="12" text-anchor="middle">list_view_h_t</text></g><g id="edge104" class="edge"><title>list_view_h_t-&gt;widget_t</title><path fill="none" stroke="#000" d="M128.129,-442.966C121.118,-446.76 114.739,-451.663 110,-458 59.6349,-525.349 42.0183,-1141.08 38.6375,-1281.56"/><polygon fill="none" stroke="#000" points="35.13 -1281.83 38.394 -1291.91 42.128 -1281.99 35.13 -1281.83"/></g><g id="node104" class="node"><title>list_item_t</title><polygon fill="none" stroke="#000" points="135.394 -357 135.394 -393 230.606 -393 230.606 -357 135.394 -357"/><text x="183" y="-371.5" font-family="Courier New" font-size="12" text-anchor="middle">list_item_t</text></g><g id="edge106" class="edge"><title>list_item_t-&gt;widget_t</title><path fill="none" stroke="#000" d="M135.035,-384.612C125.367,-388.728 116.244,-394.606 110,-403 56.3627,-475.107 41.1904,-1135.76 38.4821,-1281.6"/><polygon fill="none" stroke="#000" points="34.977 -1281.87 38.295 -1291.93 41.976 -1281.99 34.977 -1281.87"/></g><g id="node106" class="node"><title>scroll_bar_t</title><polygon fill="none" stroke="#000" points="131.793 -302 131.793 -338 234.207 -338 234.207 -302 131.793 -302"/><text x="183" y="-316.5" font-family="Courier New" font-size="12" text-anchor="middle">scroll_bar_t</text></g><g id="edge108" class="edge"><title>scroll_bar_t-&gt;widget_t</title><path fill="none" stroke="#000" d="M131.687,-331.088C123.275,-335.1 115.507,-340.562 110,-348 53.1243,-424.821 40.4308,-1129.63 38.349,-1281.32"/><polygon fill="none" stroke="#000" points="34.845 -1281.61 38.212 -1291.65 41.844 -1281.7 34.845 -1281.61"/></g><g id="node108" class="node"><title>scroll_view_t</title><polygon fill="none" stroke="#000" points="128.192 -247 128.192 -283 237.808 -283 237.808 -247 128.192 -247"/><text x="183" y="-261.5" font-family="Courier New" font-size="12" text-anchor="middle">scroll_view_t</text></g><g id="edge110" class="edge"><title>scroll_view_t-&gt;widget_t</title><path fill="none" stroke="#000" d="M128.052,-277.909C121.051,-281.71 114.696,-286.631 110,-293 49.8014,-374.653 39.6802,-1125.62 38.2223,-1281.68"/><polygon fill="none" stroke="#000" points="34.721 -1281.84 38.132 -1291.87 41.721 -1281.9 34.721 -1281.84"/></g><g id="node110" class="node"><title>mledit_t</title><polygon fill="none" stroke="#000" points="146.195 -192 146.195 -228 219.805 -228 219.805 -192 146.195 -192"/><text x="183" y="-206.5" font-family="Courier New" font-size="12" text-anchor="middle">mledit_t</text></g><g id="edge112" class="edge"><title>mledit_t-&gt;widget_t</title><path fill="none" stroke="#000" d="M145.853,-215.66C132.467,-219.645 118.495,-226.434 110,-238 46.5191,-324.432 38.9881,-1120.63 38.1129,-1281.68"/><polygon fill="none" stroke="#000" points="34.613 -1281.74 38.063 -1291.76 41.612 -1281.77 34.613 -1281.74"/></g><g id="node112" class="node"><title>slide_indicator_t</title><polygon fill="none" stroke="#000" points="113.79 -137 113.79 -173 252.21 -173 252.21 -137 113.79 -137"/><text x="183" y="-151.5" font-family="Courier New" font-size="12" text-anchor="middle">slide_indicator_t</text></g><g id="edge114" class="edge"><title>slide_indicator_t-&gt;widget_t</title><path fill="none" stroke="#000" d="M119.868,-173.104C116.133,-175.937 112.773,-179.212 110,-183 43.2832,-274.149 38.3375,-1114.5 38.0147,-1281.3"/><polygon fill="none" stroke="#000" points="34.514 -1281.71 37.999 -1291.71 41.514 -1281.72 34.514 -1281.71"/></g><g id="node114" class="node"><title>line_number_t</title><polygon fill="none" stroke="#000" points="128.192 -82 128.192 -118 237.808 -118 237.808 -82 128.192 -82"/><text x="183" y="-96.5" font-family="Courier New" font-size="12" text-anchor="middle">line_number_t</text></g><g id="edge116" class="edge"><title>line_number_t-&gt;widget_t</title><path fill="none" stroke="#000" d="M127.997,-112.868C121.003,-116.675 114.664,-121.608 110,-128 39.9639,-223.981 37.7038,-1110.48 37.9241,-1281.52"/><polygon fill="none" stroke="#000" points="34.424 -1281.74 37.941 -1291.73 41.424 -1281.73 34.424 -1281.74"/></g></g></svg>